<?xml version="1.0" encoding="UTF-8" standalone="no"?>
<!-- Created with Inkscape (http://www.inkscape.org/) -->
<svg
   xmlns:dc="http://purl.org/dc/elements/1.1/"
   xmlns:cc="http://creativecommons.org/ns#"
   xmlns:rdf="http://www.w3.org/1999/02/22-rdf-syntax-ns#"
   xmlns:svg="http://www.w3.org/2000/svg"
   xmlns="http://www.w3.org/2000/svg"
   xmlns:xlink="http://www.w3.org/1999/xlink"
   xmlns:sodipodi="http://sodipodi.sourceforge.net/DTD/sodipodi-0.dtd"
   xmlns:inkscape="http://www.inkscape.org/namespaces/inkscape"
   width="750"
   height="440"
   id="svg2"
   sodipodi:version="0.32"
   inkscape:version="0.46"
   sodipodi:docname="certificates.svg"
   inkscape:output_extension="org.inkscape.output.svg.inkscape"
   version="1.0">
  <defs
     id="defs4">
    <linearGradient
       id="linearGradient3877">
      <stop
         style="stop-color:#e04d56;stop-opacity:1;"
         offset="0"
         id="stop3879" />
      <stop
         style="stop-color:#252381;stop-opacity:1;"
         offset="1"
         id="stop3881" />
    </linearGradient>
    <inkscape:perspective
       sodipodi:type="inkscape:persp3d"
       inkscape:vp_x="0 : 526.18109 : 1"
       inkscape:vp_y="0 : 1000 : 0"
       inkscape:vp_z="744.09448 : 526.18109 : 1"
       inkscape:persp3d-origin="372.04724 : 350.78739 : 1"
       id="perspective10" />
    <linearGradient
       gradientUnits="userSpaceOnUse"
       xlink:href="#linearGradient5158"
       id="linearGradient7130"
       y2="236.74471"
       x2="335.0011"
       y1="216.04376"
       x1="335.0011" />
    <filter
       id="filter7120">
      <feGaussianBlur
         inkscape:collect="always"
         stdDeviation="3.92425"
         id="feGaussianBlur7122" />
    </filter>
    <linearGradient
       gradientUnits="userSpaceOnUse"
       xlink:href="#linearGradient5158"
       id="linearGradient5164"
       y2="236.74471"
       x2="335.0011"
       y1="216.04376"
       x1="335.0011" />
    <linearGradient
       id="linearGradient5158">
      <stop
         id="stop5160"
         offset="0"
         style="stop-color:#e5e699;stop-opacity:1;" />
      <stop
         id="stop5162"
         offset="1"
         style="stop-color: rgb(174, 174, 42); stop-opacity: 1;" />
    </linearGradient>
    <inkscape:perspective
       id="perspective3617"
       inkscape:persp3d-origin="330.67188 : 112.90667 : 1"
       inkscape:vp_z="661.34375 : 169.36 : 1"
       inkscape:vp_y="0 : 1000 : 0"
       inkscape:vp_x="0 : 169.36 : 1"
       sodipodi:type="inkscape:persp3d" />
    <linearGradient
       gradientUnits="userSpaceOnUse"
       xlink:href="#linearGradient5158"
       id="linearGradient3784"
       y2="236.74471"
       x2="335.0011"
       y1="216.04376"
       x1="335.0011" />
    <filter
       id="filter3780">
      <feGaussianBlur
         inkscape:collect="always"
         stdDeviation="3.92425"
         id="feGaussianBlur3782" />
    </filter>
    <linearGradient
       gradientUnits="userSpaceOnUse"
       xlink:href="#linearGradient5158"
       id="linearGradient3778"
       y2="236.74471"
       x2="335.0011"
       y1="216.04376"
       x1="335.0011" />
    <linearGradient
       id="linearGradient3772">
      <stop
         id="stop3774"
         offset="0"
         style="stop-color: rgb(230, 230, 153); stop-opacity: 1;" />
      <stop
         id="stop3776"
         offset="1"
         style="stop-color: rgb(174, 174, 42); stop-opacity: 1;" />
    </linearGradient>
    <inkscape:perspective
       id="perspective3769"
       inkscape:persp3d-origin="330.67188 : 112.90667 : 1"
       inkscape:vp_z="661.34375 : 169.36 : 1"
       inkscape:vp_y="0 : 1000 : 0"
       inkscape:vp_x="0 : 169.36 : 1"
       sodipodi:type="inkscape:persp3d" />
    <linearGradient
       inkscape:collect="always"
       xlink:href="#linearGradient5158"
       id="linearGradient3941"
       gradientUnits="userSpaceOnUse"
       gradientTransform="matrix(0.6666667,0,0,0.6666667,257.76978,36.490181)"
       x1="335.0011"
       y1="216.04376"
       x2="335.0011"
       y2="236.74471" />
    <linearGradient
       inkscape:collect="always"
       xlink:href="#linearGradient3877"
       id="linearGradient3943"
       gradientUnits="userSpaceOnUse"
       gradientTransform="matrix(0.6666667,0,0,0.6666667,257.76978,477.38602)"
       x1="335.0011"
       y1="216.04376"
       x2="335.0011"
       y2="236.74471" />
    <linearGradient
       inkscape:collect="always"
       xlink:href="#linearGradient5158"
       id="linearGradient3945"
       gradientUnits="userSpaceOnUse"
       gradientTransform="matrix(0.6666667,0,0,0.6666667,257.76978,36.490181)"
       x1="335.0011"
       y1="216.04376"
       x2="335.0011"
       y2="236.74471" />
    <linearGradient
       inkscape:collect="always"
       xlink:href="#linearGradient3877"
       id="linearGradient3947"
       gradientUnits="userSpaceOnUse"
       gradientTransform="matrix(0.6666667,0,0,0.6666667,257.76978,477.38602)"
       x1="335.0011"
       y1="216.04376"
       x2="335.0011"
       y2="236.74471" />
    <linearGradient
       inkscape:collect="always"
       xlink:href="#linearGradient5158"
       id="linearGradient4061"
       gradientUnits="userSpaceOnUse"
       gradientTransform="matrix(0.6666667,0,0,0.6666667,257.76978,36.490181)"
       x1="335.0011"
       y1="216.04376"
       x2="335.0011"
       y2="236.74471" />
    <linearGradient
       inkscape:collect="always"
       xlink:href="#linearGradient3877"
       id="linearGradient4063"
       gradientUnits="userSpaceOnUse"
       gradientTransform="matrix(0.6666667,0,0,0.6666667,257.76978,477.38602)"
       x1="335.0011"
       y1="216.04376"
       x2="335.0011"
       y2="236.74471" />
    <linearGradient
       inkscape:collect="always"
       xlink:href="#linearGradient5158"
       id="linearGradient4065"
       gradientUnits="userSpaceOnUse"
       gradientTransform="matrix(0.6666667,0,0,0.6666667,257.76978,36.490181)"
       x1="335.0011"
       y1="216.04376"
       x2="335.0011"
       y2="236.74471" />
    <linearGradient
       inkscape:collect="always"
       xlink:href="#linearGradient3877"
       id="linearGradient4067"
       gradientUnits="userSpaceOnUse"
       gradientTransform="matrix(0.6666667,0,0,0.6666667,257.76978,477.38602)"
       x1="335.0011"
       y1="216.04376"
       x2="335.0011"
       y2="236.74471" />
  </defs>
  <sodipodi:namedview
     id="base"
     pagecolor="#ffffff"
     bordercolor="#666666"
     borderopacity="1.0"
     gridtolerance="10000"
     guidetolerance="10"
     objecttolerance="10"
     inkscape:pageopacity="0.0"
     inkscape:pageshadow="2"
     inkscape:zoom="0.98994949"
     inkscape:cx="340.95351"
     inkscape:cy="304.25188"
     inkscape:document-units="px"
     inkscape:current-layer="layer1"
     showgrid="true"
     inkscape:window-width="1280"
     inkscape:window-height="964"
     inkscape:window-x="-5"
     inkscape:window-y="-3">
    <inkscape:grid
       type="xygrid"
       id="grid2391"
       visible="true"
       enabled="true" />
  </sodipodi:namedview>
  <metadata
     id="metadata7">
    <rdf:RDF>
      <cc:Work
         rdf:about="">
        <dc:format>image/svg+xml</dc:format>
        <dc:type
           rdf:resource="http://purl.org/dc/dcmitype/StillImage" />
      </cc:Work>
    </rdf:RDF>
  </metadata>
  <g
     inkscape:label="Layer 1"
     inkscape:groupmode="layer"
     id="layer1"
     transform="translate(30,-92.362183)">
    <text
       id="text3462"
       y="385.98444"
       x="201.19873"
       style="font-size:18px;font-style:normal;font-weight:normal;fill:#000000;fill-opacity:1;stroke:none;stroke-width:1px;stroke-linecap:butt;stroke-linejoin:miter;stroke-opacity:1;font-family:Bitstream Vera Sans"
       xml:space="preserve"><tspan
         style="font-size:13px"
         y="385.98444"
         x="201.19873"
         sodipodi:role="line"
         id="tspan3535">Certificate</tspan></text>
    <g
       id="g3466"
       transform="translate(0,160)">
      <rect
         style="fill:#ffffdb;fill-opacity:1;stroke:#000000;stroke-width:1;stroke-miterlimit:4;stroke-dasharray:none;stroke-opacity:1"
         id="rect3468"
         width="130"
         height="100"
         x="170"
         y="232.36218" />
      <g
         id="g3470"
         transform="translate(-80,5.0150146)">
        <text
           xml:space="preserve"
           style="font-size:18px;font-style:normal;font-weight:normal;fill:#000000;fill-opacity:1;stroke:none;stroke-width:1px;stroke-linecap:butt;stroke-linejoin:miter;stroke-opacity:1;font-family:Bitstream Vera Sans"
           x="273.36493"
           y="260.93359"
           id="text3472"><tspan
             sodipodi:role="line"
             id="tspan3474"
             x="273.36493"
             y="260.93359"
             style="font-size:13px">User Identity</tspan></text>
        <text
           id="text3476"
           y="300.93359"
           x="282.00092"
           style="font-size:18px;font-style:normal;font-weight:normal;fill:#000000;fill-opacity:1;stroke:none;stroke-width:1px;stroke-linecap:butt;stroke-linejoin:miter;stroke-opacity:1;font-family:Bitstream Vera Sans"
           xml:space="preserve"><tspan
             style="font-size:13px"
             y="300.93359"
             x="282.00092"
             id="tspan3478"
             sodipodi:role="line">Public Key</tspan></text>
        <text
           xml:space="preserve"
           style="font-size:18px;font-style:normal;font-weight:normal;fill:#000000;fill-opacity:1;stroke:none;stroke-width:1px;stroke-linecap:butt;stroke-linejoin:miter;stroke-opacity:1;font-family:Bitstream Vera Sans"
           x="310.10834"
           y="280.93359"
           id="text3480"><tspan
             sodipodi:role="line"
             id="tspan3482"
             x="310.10834"
             y="280.93359"
             style="font-size:13px">+</tspan></text>
      </g>
    </g>
    <g
       id="g3484"
       transform="translate(-240,20)">
      <rect
         style="fill:#d5e5ff;fill-opacity:1;stroke:#000000;stroke-width:1;stroke-miterlimit:4;stroke-dasharray:none;stroke-opacity:1"
         id="rect3486"
         width="130"
         height="20"
         x="410"
         y="472.36218" />
      <text
         xml:space="preserve"
         style="font-size:13px;font-style:normal;font-weight:normal;fill:#000000;fill-opacity:1;stroke:none;stroke-width:1px;stroke-linecap:butt;stroke-linejoin:miter;stroke-opacity:1;font-family:Bitstream Vera Sans"
         x="447.05444"
         y="485.94861"
         id="text3488"><tspan
           sodipodi:role="line"
           id="tspan3490"
           x="447.05444"
           y="485.94861">Signatur</tspan></text>
    </g>
    <g
       id="g3333"
       transform="translate(54.816956,-5.7142944)">
      <path
         style="fill:#f9f9f9;fill-rule:evenodd;stroke:#000000;stroke-width:1px;stroke-linecap:butt;stroke-linejoin:miter;stroke-opacity:1"
         d="M 75.7099,138.95197 L 275.7099,138.95197 L 275.7099,188.95197 L 75.7099,188.95197 L 75.7099,138.95197 z"
         id="path3325" />
      <text
         id="text2383"
         y="158.07648"
         x="175.71429"
         style="font-size:18px;font-style:normal;font-weight:normal;text-align:center;text-anchor:middle;fill:#000000;fill-opacity:1;stroke:none;stroke-width:1px;stroke-linecap:butt;stroke-linejoin:miter;stroke-opacity:1;font-family:Bitstream Vera Sans"
         xml:space="preserve"><tspan
           y="158.07648"
           x="178.57953"
           id="tspan2385"
           sodipodi:role="line">User </tspan><tspan
           id="tspan3321"
           y="180.57648"
           x="175.71429"
           sodipodi:role="line">(Owner)</tspan></text>
    </g>
    <g
       id="g3327"
       transform="translate(8.980835,-4.3432007)">
      <path
         id="path3323"
         d="M 360.3468,137.30402 L 560.3468,137.30402 L 560.3468,187.30402 L 360.3468,187.30402 L 360.3468,137.30402 z"
         style="fill:#f9f9f9;fill-rule:evenodd;stroke:#000000;stroke-width:1px;stroke-linecap:butt;stroke-linejoin:miter;stroke-opacity:1" />
      <text
         id="text2387"
         y="156.70538"
         x="459.84143"
         style="font-size:18px;font-style:normal;font-weight:normal;text-align:center;text-anchor:middle;fill:#000000;fill-opacity:1;stroke:none;stroke-width:1px;stroke-linecap:butt;stroke-linejoin:miter;stroke-opacity:1;font-family:Bitstream Vera Sans"
         xml:space="preserve"><tspan
           y="156.70538"
           x="462.70667"
           id="tspan2389"
           sodipodi:role="line">Certficate Authority </tspan><tspan
           id="tspan3267"
           y="179.20538"
           x="459.84143"
           sodipodi:role="line">(Issuer)</tspan></text>
    </g>
    <g
       id="g3375">
      <text
         id="text3175"
         y="225.98442"
         x="174.7663"
         style="font-size:18px;font-style:normal;font-weight:normal;fill:#000000;fill-opacity:1;stroke:none;stroke-width:1px;stroke-linecap:butt;stroke-linejoin:miter;stroke-opacity:1;font-family:Bitstream Vera Sans"
         xml:space="preserve"><tspan
           style="font-size:13px"
           y="225.98442"
           x="174.7663"
           id="tspan3177"
           sodipodi:role="line">Certificate request</tspan></text>
      <g
         id="g3365">
        <rect
           style="fill:#ffffdb;fill-opacity:1;stroke:#000000;stroke-width:1;stroke-miterlimit:4;stroke-dasharray:none;stroke-opacity:1"
           id="rect3165"
           width="130"
           height="100"
           x="170"
           y="232.36218" />
        <g
           id="g3207"
           transform="translate(-80,5.0150146)">
          <text
             xml:space="preserve"
             style="font-size:18px;font-style:normal;font-weight:normal;fill:#000000;fill-opacity:1;stroke:none;stroke-width:1px;stroke-linecap:butt;stroke-linejoin:miter;stroke-opacity:1;font-family:Bitstream Vera Sans"
             x="273.36493"
             y="260.93359"
             id="text3179"><tspan
               sodipodi:role="line"
               id="tspan3181"
               x="273.36493"
               y="260.93359"
               style="font-size:13px">User Identity</tspan></text>
          <text
             id="text3183"
             y="300.93359"
             x="282.00092"
             style="font-size:18px;font-style:normal;font-weight:normal;fill:#000000;fill-opacity:1;stroke:none;stroke-width:1px;stroke-linecap:butt;stroke-linejoin:miter;stroke-opacity:1;font-family:Bitstream Vera Sans"
             xml:space="preserve"><tspan
               style="font-size:13px"
               y="300.93359"
               x="282.00092"
               id="tspan3185"
               sodipodi:role="line">Public Key</tspan></text>
          <text
             xml:space="preserve"
             style="font-size:18px;font-style:normal;font-weight:normal;fill:#000000;fill-opacity:1;stroke:none;stroke-width:1px;stroke-linecap:butt;stroke-linejoin:miter;stroke-opacity:1;font-family:Bitstream Vera Sans"
             x="310.10834"
             y="280.93359"
             id="text3187"><tspan
               sodipodi:role="line"
               id="tspan3189"
               x="310.10834"
               y="280.93359"
               style="font-size:13px">+</tspan></text>
        </g>
      </g>
    </g>
    <path
       style="fill:#ffffff;fill-rule:evenodd;stroke:#000000;stroke-width:1px;stroke-linecap:butt;stroke-linejoin:miter;stroke-opacity:1"
       d="M 110,258.36218 L 160,258.36218 L 160,254.36218 L 172,262.36218 L 160,270.36218 L 160,266.36218 L 110,266.36218 L 110,258.36218 z"
       id="path3229"
       sodipodi:nodetypes="cccccccc" />
    <g
       id="g3447"
       transform="translate(0,-30)">
      <rect
         y="472.36218"
         x="410"
         height="20"
         width="130"
         id="rect3438"
         style="fill:#d5e5ff;fill-opacity:1;stroke:#000000;stroke-width:1;stroke-miterlimit:4;stroke-dasharray:none;stroke-opacity:1" />
      <text
         id="text3287"
         y="485.94861"
         x="447.05444"
         style="font-size:13px;font-style:normal;font-weight:normal;fill:#000000;fill-opacity:1;stroke:none;stroke-width:1px;stroke-linecap:butt;stroke-linejoin:miter;stroke-opacity:1;font-family:Bitstream Vera Sans"
         xml:space="preserve"><tspan
           y="485.94861"
           x="447.05444"
           id="tspan3289"
           sodipodi:role="line">Signatur</tspan></text>
    </g>
    <g
       id="g3455">
      <rect
         style="fill:#d5e5ff;fill-opacity:1;stroke:#000000;stroke-width:1;stroke-miterlimit:4;stroke-dasharray:none;stroke-opacity:1"
         id="rect3396"
         width="130"
         height="20"
         x="410"
         y="272.36218" />
      <text
         xml:space="preserve"
         style="font-size:18px;font-style:normal;font-weight:normal;fill:#000000;fill-opacity:1;stroke:none;stroke-width:1px;stroke-linecap:butt;stroke-linejoin:miter;stroke-opacity:1;font-family:Bitstream Vera Sans"
         x="423.00317"
         y="285.94861"
         id="text3269"><tspan
           sodipodi:role="line"
           id="tspan3271"
           x="423.00317"
           y="285.94861"
           style="font-size:13px">Hash of request</tspan></text>
    </g>
    <g
       id="g3973">
      <text
         id="text3215"
         y="264.09348"
         x="31.572273"
         style="font-size:18px;font-style:normal;font-weight:normal;fill:#000000;fill-opacity:1;stroke:none;stroke-width:1px;stroke-linecap:butt;stroke-linejoin:miter;stroke-opacity:1;font-family:Bitstream Vera Sans"
         xml:space="preserve"><tspan
           style="font-size:13px"
           y="264.09348"
           x="31.572273"
           id="tspan3217"
           sodipodi:role="line">Public Key</tspan></text>
      <text
         xml:space="preserve"
         style="font-size:18px;font-style:normal;font-weight:normal;fill:#000000;fill-opacity:1;stroke:none;stroke-width:1px;stroke-linecap:butt;stroke-linejoin:miter;stroke-opacity:1;font-family:Bitstream Vera Sans"
         x="31.572273"
         y="304.09348"
         id="text3219"><tspan
           sodipodi:role="line"
           id="tspan3221"
           x="31.572273"
           y="304.09348"
           style="font-size:13px">Private Key</tspan></text>
      <g
         transform="matrix(9.0724377e-2,0,0,9.0724377e-2,-45.434957,242.20147)"
         id="g3860">
        <path
           transform="matrix(0.6666667,0,0,0.6666667,257.76978,35.48976)"
           id="path6137"
           style="opacity:0.561702;fill:#000000;fill-opacity:1;stroke:#000000;stroke-width:4;stroke-linecap:butt;stroke-linejoin:miter;stroke-miterlimit:4;stroke-dasharray:none;stroke-dashoffset:0;stroke-opacity:1;filter:url(#filter7120)"
           d="M 201.4375,83.563132 C 137.56321,83.563132 85.71875,156.54098 85.71875,246.43813 C 85.71875,336.33528 137.56321,409.28189 201.4375,409.28188 C 252.26296,409.28188 295.46817,363.10339 311,298.93813 L 405.65625,298.93813 L 438.03125,259.71938 L 459.375,259.71938 L 473.75,274.09438 L 508.21875,274.09438 L 513.9375,264.21938 L 547.15625,264.21938 L 562.46875,290.75063 L 590.5625,290.75063 L 608.78125,272.53188 L 632.96875,272.53188 L 654,293.56313 L 680.40625,293.56313 L 733.0625,240.90688 L 733.0625,225.37563 L 721.25,222.21938 L 689.71875,190.68813 L 310.1875,190.68813 C 293.9998,128.22412 251.39799,83.563132 201.4375,83.563132 z M 157.15625,188.62563 C 177.65911,188.62564 194.28125,214.52901 194.28125,246.43813 C 194.28125,278.34725 177.65911,304.25063 157.15625,304.25063 C 136.6534,304.25063 120,278.34725 120,246.43813 C 120,214.529 136.65339,188.62563 157.15625,188.62563 z" />
        <g
           transform="matrix(0.6666667,0,0,0.6666667,257.76978,35.489761)"
           id="g3640">
          <path
             d="M 191.4375,89.56313 C 127.56321,89.56313 75.71875,162.54098 75.71875,252.43813 C 75.71875,342.33528 127.56321,415.28189 191.4375,415.28188 C 242.26296,415.28188 285.46817,369.10339 301,304.93813 L 395.65625,304.93813 L 428.03125,265.71938 L 449.375,265.71938 L 463.75,280.09438 L 498.21875,280.09438 L 503.9375,270.21938 L 537.15625,270.21938 L 552.46875,296.75063 L 580.5625,296.75063 L 598.78125,278.53188 L 622.96875,278.53188 L 644,299.56313 L 670.40625,299.56313 L 723.0625,246.90688 L 723.0625,231.37563 L 711.25,228.21938 L 679.71875,196.68813 L 300.1875,196.68813 C 283.9998,134.22412 241.39799,89.563133 191.4375,89.56313 z M 147.15625,194.62563 C 167.65911,194.62564 184.28125,220.52901 184.28125,252.43813 C 184.28125,284.34725 167.65911,310.25063 147.15625,310.25063 C 126.6534,310.25063 110,284.34725 110,252.43813 C 110,220.529 126.65339,194.62563 147.15625,194.62563 z"
             style="fill:#ffffcc;fill-opacity:1;stroke:#000000;stroke-width:4;stroke-linecap:butt;stroke-linejoin:miter;stroke-miterlimit:4;stroke-dasharray:none;stroke-dashoffset:0;stroke-opacity:1"
             id="path2221" />
        </g>
        <path
           id="path4186"
           style="fill:url(#linearGradient3941);fill-opacity:1;stroke:#000000;stroke-width:1.26666677;stroke-linecap:butt;stroke-linejoin:miter;stroke-miterlimit:4;stroke-dasharray:none;stroke-dashoffset:0;stroke-opacity:1"
           d="M 731.93647,187.63602 L 717.70314,173.40269 L 718.72597,174.05404 C 718.72597,174.05404 531.96245,175.91423 508.89603,175.91423 C 485.82962,175.91423 481.7372,187.63602 481.7372,187.63602 L 731.93647,187.63602 z" />
        <path
           id="path5166"
           style="fill:none;fill-opacity:1;stroke:#000000;stroke-width:2.66666675;stroke-linecap:butt;stroke-linejoin:miter;stroke-miterlimit:4;stroke-dasharray:none;stroke-dashoffset:0;stroke-opacity:1"
           d="M 385.39479,95.198518 C 342.81192,95.198518 308.24895,143.85042 308.24895,203.78186 C 308.24895,263.71329 342.81192,312.34437 385.39479,312.34436 C 419.27843,312.34436 448.0819,281.5587 458.43646,238.78186 L 521.54063,238.78186 L 543.12396,212.63602 L 557.35313,212.63602 L 566.93646,222.21936 L 589.91563,222.21936 L 593.72813,215.63602 L 615.87396,215.63602 L 626.0823,233.32352 L 644.81147,233.32352 L 656.9573,221.17769 L 673.0823,221.17769 L 687.10313,235.19852 L 704.7073,235.19852 L 739.81147,200.09435 L 739.81147,189.74019 L 731.93647,187.63602 L 710.91564,166.61519 L 457.89479,166.61519 C 447.10299,124.97251 418.70178,95.198518 385.39479,95.198518 z M 355.87395,165.24019 C 369.54253,165.24019 380.62395,182.50911 380.62395,203.78186 C 380.62395,225.0546 369.54253,242.32352 355.87395,242.32352 C 342.20538,242.32352 331.10312,225.0546 331.10312,203.78186 C 331.10312,182.5091 342.20538,165.24019 355.87395,165.24019 z" />
      </g>
      <g
         transform="matrix(9.0724377e-2,0,0,9.0724377e-2,-45.434957,242.20147)"
         id="g3910">
        <path
           d="M 201.4375,83.563132 C 137.56321,83.563132 85.71875,156.54098 85.71875,246.43813 C 85.71875,336.33528 137.56321,409.28189 201.4375,409.28188 C 252.26296,409.28188 295.46817,363.10339 311,298.93813 L 405.65625,298.93813 L 438.03125,259.71938 L 459.375,259.71938 L 473.75,274.09438 L 508.21875,274.09438 L 513.9375,264.21938 L 547.15625,264.21938 L 562.46875,290.75063 L 590.5625,290.75063 L 608.78125,272.53188 L 632.96875,272.53188 L 654,293.56313 L 680.40625,293.56313 L 733.0625,240.90688 L 733.0625,225.37563 L 721.25,222.21938 L 689.71875,190.68813 L 310.1875,190.68813 C 293.9998,128.22412 251.39799,83.563132 201.4375,83.563132 z M 157.15625,188.62563 C 177.65911,188.62564 194.28125,214.52901 194.28125,246.43813 C 194.28125,278.34725 177.65911,304.25063 157.15625,304.25063 C 136.6534,304.25063 120,278.34725 120,246.43813 C 120,214.529 136.65339,188.62563 157.15625,188.62563 z"
           style="opacity:0.561702;fill:#000000;fill-opacity:1;stroke:#000000;stroke-width:4;stroke-linecap:butt;stroke-linejoin:miter;stroke-miterlimit:4;stroke-dasharray:none;stroke-dashoffset:0;stroke-opacity:1;filter:url(#filter7120)"
           id="path3832"
           transform="matrix(0.6666667,0,0,0.6666667,257.76978,476.3856)" />
        <g
           style="fill:#ffc666;fill-opacity:1"
           id="g3834"
           transform="matrix(0.6666667,0,0,0.6666667,257.76978,476.3856)">
          <path
             id="path3836"
             style="fill:#ffc666;fill-opacity:1;stroke:#000000;stroke-width:4;stroke-linecap:butt;stroke-linejoin:miter;stroke-miterlimit:4;stroke-dasharray:none;stroke-dashoffset:0;stroke-opacity:1"
             d="M 191.4375,89.56313 C 127.56321,89.56313 75.71875,162.54098 75.71875,252.43813 C 75.71875,342.33528 127.56321,415.28189 191.4375,415.28188 C 242.26296,415.28188 285.46817,369.10339 301,304.93813 L 395.65625,304.93813 L 428.03125,265.71938 L 449.375,265.71938 L 463.75,280.09438 L 498.21875,280.09438 L 503.9375,270.21938 L 537.15625,270.21938 L 552.46875,296.75063 L 580.5625,296.75063 L 598.78125,278.53188 L 622.96875,278.53188 L 644,299.56313 L 670.40625,299.56313 L 723.0625,246.90688 L 723.0625,231.37563 L 711.25,228.21938 L 679.71875,196.68813 L 300.1875,196.68813 C 283.9998,134.22412 241.39799,89.563133 191.4375,89.56313 z M 147.15625,194.62563 C 167.65911,194.62564 184.28125,220.52901 184.28125,252.43813 C 184.28125,284.34725 167.65911,310.25063 147.15625,310.25063 C 126.6534,310.25063 110,284.34725 110,252.43813 C 110,220.529 126.65339,194.62563 147.15625,194.62563 z" />
        </g>
        <path
           d="M 731.93647,628.53186 L 717.70314,614.29853 L 718.72597,614.94988 C 718.72597,614.94988 531.96245,616.81007 508.89603,616.81007 C 485.82962,616.81007 481.7372,628.53186 481.7372,628.53186 L 731.93647,628.53186 z"
           style="fill:url(#linearGradient3943);fill-opacity:1;stroke:#000000;stroke-width:1.26666677;stroke-linecap:butt;stroke-linejoin:miter;stroke-miterlimit:4;stroke-dasharray:none;stroke-dashoffset:0;stroke-opacity:1"
           id="path3838" />
        <path
           d="M 385.39479,536.09436 C 342.81192,536.09436 308.24895,584.74626 308.24895,644.6777 C 308.24895,704.60913 342.81192,753.24021 385.39479,753.2402 C 419.27843,753.2402 448.0819,722.45454 458.43646,679.6777 L 521.54063,679.6777 L 543.12396,653.53186 L 557.35313,653.53186 L 566.93646,663.1152 L 589.91563,663.1152 L 593.72813,656.53186 L 615.87396,656.53186 L 626.0823,674.21936 L 644.81147,674.21936 L 656.9573,662.07353 L 673.0823,662.07353 L 687.10313,676.09436 L 704.7073,676.09436 L 739.81147,640.99019 L 739.81147,630.63603 L 731.93647,628.53186 L 710.91564,607.51103 L 457.89479,607.51103 C 447.10299,565.86835 418.70178,536.09436 385.39479,536.09436 z M 355.87395,606.13603 C 369.54253,606.13603 380.62395,623.40495 380.62395,644.6777 C 380.62395,665.95044 369.54253,683.21936 355.87395,683.21936 C 342.20538,683.21936 331.10312,665.95044 331.10312,644.6777 C 331.10312,623.40494 342.20538,606.13603 355.87395,606.13603 z"
           style="fill:none;fill-opacity:1;stroke:#000000;stroke-width:2.66666675;stroke-linecap:butt;stroke-linejoin:miter;stroke-miterlimit:4;stroke-dasharray:none;stroke-dashoffset:0;stroke-opacity:1"
           id="path3840" />
      </g>
      <g
         transform="matrix(9.0724377e-2,0,0,9.0724377e-2,-45.434957,242.20147)"
         id="g3917">
        <path
           d="M 201.4375,83.563132 C 137.56321,83.563132 85.71875,156.54098 85.71875,246.43813 C 85.71875,336.33528 137.56321,409.28189 201.4375,409.28188 C 252.26296,409.28188 295.46817,363.10339 311,298.93813 L 405.65625,298.93813 L 438.03125,259.71938 L 459.375,259.71938 L 473.75,274.09438 L 508.21875,274.09438 L 513.9375,264.21938 L 547.15625,264.21938 L 562.46875,290.75063 L 590.5625,290.75063 L 608.78125,272.53188 L 632.96875,272.53188 L 654,293.56313 L 680.40625,293.56313 L 733.0625,240.90688 L 733.0625,225.37563 L 721.25,222.21938 L 689.71875,190.68813 L 310.1875,190.68813 C 293.9998,128.22412 251.39799,83.563132 201.4375,83.563132 z M 157.15625,188.62563 C 177.65911,188.62564 194.28125,214.52901 194.28125,246.43813 C 194.28125,278.34725 177.65911,304.25063 157.15625,304.25063 C 136.6534,304.25063 120,278.34725 120,246.43813 C 120,214.529 136.65339,188.62563 157.15625,188.62563 z"
           style="opacity:0.561702;fill:#000000;fill-opacity:1;stroke:#000000;stroke-width:4;stroke-linecap:butt;stroke-linejoin:miter;stroke-miterlimit:4;stroke-dasharray:none;stroke-dashoffset:0;stroke-opacity:1;filter:url(#filter7120)"
           id="path3919"
           transform="matrix(0.6666667,0,0,0.6666667,257.76978,35.48976)" />
        <g
           id="g3921"
           transform="matrix(0.6666667,0,0,0.6666667,257.76978,35.489761)">
          <path
             id="path3923"
             style="fill:#ffffcc;fill-opacity:1;stroke:#000000;stroke-width:4;stroke-linecap:butt;stroke-linejoin:miter;stroke-miterlimit:4;stroke-dasharray:none;stroke-dashoffset:0;stroke-opacity:1"
             d="M 191.4375,89.56313 C 127.56321,89.56313 75.71875,162.54098 75.71875,252.43813 C 75.71875,342.33528 127.56321,415.28189 191.4375,415.28188 C 242.26296,415.28188 285.46817,369.10339 301,304.93813 L 395.65625,304.93813 L 428.03125,265.71938 L 449.375,265.71938 L 463.75,280.09438 L 498.21875,280.09438 L 503.9375,270.21938 L 537.15625,270.21938 L 552.46875,296.75063 L 580.5625,296.75063 L 598.78125,278.53188 L 622.96875,278.53188 L 644,299.56313 L 670.40625,299.56313 L 723.0625,246.90688 L 723.0625,231.37563 L 711.25,228.21938 L 679.71875,196.68813 L 300.1875,196.68813 C 283.9998,134.22412 241.39799,89.563133 191.4375,89.56313 z M 147.15625,194.62563 C 167.65911,194.62564 184.28125,220.52901 184.28125,252.43813 C 184.28125,284.34725 167.65911,310.25063 147.15625,310.25063 C 126.6534,310.25063 110,284.34725 110,252.43813 C 110,220.529 126.65339,194.62563 147.15625,194.62563 z" />
        </g>
        <path
           d="M 731.93647,187.63602 L 717.70314,173.40269 L 718.72597,174.05404 C 718.72597,174.05404 531.96245,175.91423 508.89603,175.91423 C 485.82962,175.91423 481.7372,187.63602 481.7372,187.63602 L 731.93647,187.63602 z"
           style="fill:url(#linearGradient3945);fill-opacity:1;stroke:#000000;stroke-width:1.26666677;stroke-linecap:butt;stroke-linejoin:miter;stroke-miterlimit:4;stroke-dasharray:none;stroke-dashoffset:0;stroke-opacity:1"
           id="path3925" />
        <path
           d="M 385.39479,95.198518 C 342.81192,95.198518 308.24895,143.85042 308.24895,203.78186 C 308.24895,263.71329 342.81192,312.34437 385.39479,312.34436 C 419.27843,312.34436 448.0819,281.5587 458.43646,238.78186 L 521.54063,238.78186 L 543.12396,212.63602 L 557.35313,212.63602 L 566.93646,222.21936 L 589.91563,222.21936 L 593.72813,215.63602 L 615.87396,215.63602 L 626.0823,233.32352 L 644.81147,233.32352 L 656.9573,221.17769 L 673.0823,221.17769 L 687.10313,235.19852 L 704.7073,235.19852 L 739.81147,200.09435 L 739.81147,189.74019 L 731.93647,187.63602 L 710.91564,166.61519 L 457.89479,166.61519 C 447.10299,124.97251 418.70178,95.198518 385.39479,95.198518 z M 355.87395,165.24019 C 369.54253,165.24019 380.62395,182.50911 380.62395,203.78186 C 380.62395,225.0546 369.54253,242.32352 355.87395,242.32352 C 342.20538,242.32352 331.10312,225.0546 331.10312,203.78186 C 331.10312,182.5091 342.20538,165.24019 355.87395,165.24019 z"
           style="fill:none;fill-opacity:1;stroke:#000000;stroke-width:2.66666675;stroke-linecap:butt;stroke-linejoin:miter;stroke-miterlimit:4;stroke-dasharray:none;stroke-dashoffset:0;stroke-opacity:1"
           id="path3927" />
      </g>
      <g
         transform="matrix(9.0724377e-2,0,0,9.0724377e-2,-45.434957,242.20147)"
         id="g3929">
        <path
           transform="matrix(0.6666667,0,0,0.6666667,257.76978,476.3856)"
           id="path3931"
           style="opacity:0.561702;fill:#000000;fill-opacity:1;stroke:#000000;stroke-width:4;stroke-linecap:butt;stroke-linejoin:miter;stroke-miterlimit:4;stroke-dasharray:none;stroke-dashoffset:0;stroke-opacity:1;filter:url(#filter7120)"
           d="M 201.4375,83.563132 C 137.56321,83.563132 85.71875,156.54098 85.71875,246.43813 C 85.71875,336.33528 137.56321,409.28189 201.4375,409.28188 C 252.26296,409.28188 295.46817,363.10339 311,298.93813 L 405.65625,298.93813 L 438.03125,259.71938 L 459.375,259.71938 L 473.75,274.09438 L 508.21875,274.09438 L 513.9375,264.21938 L 547.15625,264.21938 L 562.46875,290.75063 L 590.5625,290.75063 L 608.78125,272.53188 L 632.96875,272.53188 L 654,293.56313 L 680.40625,293.56313 L 733.0625,240.90688 L 733.0625,225.37563 L 721.25,222.21938 L 689.71875,190.68813 L 310.1875,190.68813 C 293.9998,128.22412 251.39799,83.563132 201.4375,83.563132 z M 157.15625,188.62563 C 177.65911,188.62564 194.28125,214.52901 194.28125,246.43813 C 194.28125,278.34725 177.65911,304.25063 157.15625,304.25063 C 136.6534,304.25063 120,278.34725 120,246.43813 C 120,214.529 136.65339,188.62563 157.15625,188.62563 z" />
        <g
           transform="matrix(0.6666667,0,0,0.6666667,257.76978,476.3856)"
           id="g3933"
           style="fill:#ffc666;fill-opacity:1">
          <path
             d="M 191.4375,89.56313 C 127.56321,89.56313 75.71875,162.54098 75.71875,252.43813 C 75.71875,342.33528 127.56321,415.28189 191.4375,415.28188 C 242.26296,415.28188 285.46817,369.10339 301,304.93813 L 395.65625,304.93813 L 428.03125,265.71938 L 449.375,265.71938 L 463.75,280.09438 L 498.21875,280.09438 L 503.9375,270.21938 L 537.15625,270.21938 L 552.46875,296.75063 L 580.5625,296.75063 L 598.78125,278.53188 L 622.96875,278.53188 L 644,299.56313 L 670.40625,299.56313 L 723.0625,246.90688 L 723.0625,231.37563 L 711.25,228.21938 L 679.71875,196.68813 L 300.1875,196.68813 C 283.9998,134.22412 241.39799,89.563133 191.4375,89.56313 z M 147.15625,194.62563 C 167.65911,194.62564 184.28125,220.52901 184.28125,252.43813 C 184.28125,284.34725 167.65911,310.25063 147.15625,310.25063 C 126.6534,310.25063 110,284.34725 110,252.43813 C 110,220.529 126.65339,194.62563 147.15625,194.62563 z"
             style="fill:#ffc666;fill-opacity:1;stroke:#000000;stroke-width:4;stroke-linecap:butt;stroke-linejoin:miter;stroke-miterlimit:4;stroke-dasharray:none;stroke-dashoffset:0;stroke-opacity:1"
             id="path3935" />
        </g>
        <path
           id="path3937"
           style="fill:url(#linearGradient3947);fill-opacity:1;stroke:#000000;stroke-width:1.26666677;stroke-linecap:butt;stroke-linejoin:miter;stroke-miterlimit:4;stroke-dasharray:none;stroke-dashoffset:0;stroke-opacity:1"
           d="M 731.93647,628.53186 L 717.70314,614.29853 L 718.72597,614.94988 C 718.72597,614.94988 531.96245,616.81007 508.89603,616.81007 C 485.82962,616.81007 481.7372,628.53186 481.7372,628.53186 L 731.93647,628.53186 z" />
        <path
           id="path3939"
           style="fill:none;fill-opacity:1;stroke:#000000;stroke-width:2.66666675;stroke-linecap:butt;stroke-linejoin:miter;stroke-miterlimit:4;stroke-dasharray:none;stroke-dashoffset:0;stroke-opacity:1"
           d="M 385.39479,536.09436 C 342.81192,536.09436 308.24895,584.74626 308.24895,644.6777 C 308.24895,704.60913 342.81192,753.24021 385.39479,753.2402 C 419.27843,753.2402 448.0819,722.45454 458.43646,679.6777 L 521.54063,679.6777 L 543.12396,653.53186 L 557.35313,653.53186 L 566.93646,663.1152 L 589.91563,663.1152 L 593.72813,656.53186 L 615.87396,656.53186 L 626.0823,674.21936 L 644.81147,674.21936 L 656.9573,662.07353 L 673.0823,662.07353 L 687.10313,676.09436 L 704.7073,676.09436 L 739.81147,640.99019 L 739.81147,630.63603 L 731.93647,628.53186 L 710.91564,607.51103 L 457.89479,607.51103 C 447.10299,565.86835 418.70178,536.09436 385.39479,536.09436 z M 355.87395,606.13603 C 369.54253,606.13603 380.62395,623.40495 380.62395,644.6777 C 380.62395,665.95044 369.54253,683.21936 355.87395,683.21936 C 342.20538,683.21936 331.10312,665.95044 331.10312,644.6777 C 331.10312,623.40494 342.20538,606.13603 355.87395,606.13603 z" />
      </g>
    </g>
    <g
       id="g4003"
       transform="translate(600,0)">
      <text
         xml:space="preserve"
         style="font-size:18px;font-style:normal;font-weight:normal;fill:#000000;fill-opacity:1;stroke:none;stroke-width:1px;stroke-linecap:butt;stroke-linejoin:miter;stroke-opacity:1;font-family:Bitstream Vera Sans"
         x="31.572273"
         y="264.09348"
         id="text4005"><tspan
           sodipodi:role="line"
           id="tspan4007"
           x="31.572273"
           y="264.09348"
           style="font-size:13px">Public Key</tspan></text>
      <text
         id="text4009"
         y="304.09348"
         x="31.572273"
         style="font-size:18px;font-style:normal;font-weight:normal;fill:#000000;fill-opacity:1;stroke:none;stroke-width:1px;stroke-linecap:butt;stroke-linejoin:miter;stroke-opacity:1;font-family:Bitstream Vera Sans"
         xml:space="preserve"><tspan
           style="font-size:13px"
           y="304.09348"
           x="31.572273"
           id="tspan4011"
           sodipodi:role="line">Private Key</tspan></text>
      <g
         id="g4013"
         transform="matrix(9.0724377e-2,0,0,9.0724377e-2,-45.434957,242.20147)">
        <path
           d="M 201.4375,83.563132 C 137.56321,83.563132 85.71875,156.54098 85.71875,246.43813 C 85.71875,336.33528 137.56321,409.28189 201.4375,409.28188 C 252.26296,409.28188 295.46817,363.10339 311,298.93813 L 405.65625,298.93813 L 438.03125,259.71938 L 459.375,259.71938 L 473.75,274.09438 L 508.21875,274.09438 L 513.9375,264.21938 L 547.15625,264.21938 L 562.46875,290.75063 L 590.5625,290.75063 L 608.78125,272.53188 L 632.96875,272.53188 L 654,293.56313 L 680.40625,293.56313 L 733.0625,240.90688 L 733.0625,225.37563 L 721.25,222.21938 L 689.71875,190.68813 L 310.1875,190.68813 C 293.9998,128.22412 251.39799,83.563132 201.4375,83.563132 z M 157.15625,188.62563 C 177.65911,188.62564 194.28125,214.52901 194.28125,246.43813 C 194.28125,278.34725 177.65911,304.25063 157.15625,304.25063 C 136.6534,304.25063 120,278.34725 120,246.43813 C 120,214.529 136.65339,188.62563 157.15625,188.62563 z"
           style="opacity:0.561702;fill:#000000;fill-opacity:1;stroke:#000000;stroke-width:4;stroke-linecap:butt;stroke-linejoin:miter;stroke-miterlimit:4;stroke-dasharray:none;stroke-dashoffset:0;stroke-opacity:1;filter:url(#filter7120)"
           id="path4015"
           transform="matrix(0.6666667,0,0,0.6666667,257.76978,35.48976)" />
        <g
           id="g4017"
           transform="matrix(0.6666667,0,0,0.6666667,257.76978,35.489761)">
          <path
             id="path4019"
             style="fill:#ffffcc;fill-opacity:1;stroke:#000000;stroke-width:4;stroke-linecap:butt;stroke-linejoin:miter;stroke-miterlimit:4;stroke-dasharray:none;stroke-dashoffset:0;stroke-opacity:1"
             d="M 191.4375,89.56313 C 127.56321,89.56313 75.71875,162.54098 75.71875,252.43813 C 75.71875,342.33528 127.56321,415.28189 191.4375,415.28188 C 242.26296,415.28188 285.46817,369.10339 301,304.93813 L 395.65625,304.93813 L 428.03125,265.71938 L 449.375,265.71938 L 463.75,280.09438 L 498.21875,280.09438 L 503.9375,270.21938 L 537.15625,270.21938 L 552.46875,296.75063 L 580.5625,296.75063 L 598.78125,278.53188 L 622.96875,278.53188 L 644,299.56313 L 670.40625,299.56313 L 723.0625,246.90688 L 723.0625,231.37563 L 711.25,228.21938 L 679.71875,196.68813 L 300.1875,196.68813 C 283.9998,134.22412 241.39799,89.563133 191.4375,89.56313 z M 147.15625,194.62563 C 167.65911,194.62564 184.28125,220.52901 184.28125,252.43813 C 184.28125,284.34725 167.65911,310.25063 147.15625,310.25063 C 126.6534,310.25063 110,284.34725 110,252.43813 C 110,220.529 126.65339,194.62563 147.15625,194.62563 z" />
        </g>
        <path
           d="M 731.93647,187.63602 L 717.70314,173.40269 L 718.72597,174.05404 C 718.72597,174.05404 531.96245,175.91423 508.89603,175.91423 C 485.82962,175.91423 481.7372,187.63602 481.7372,187.63602 L 731.93647,187.63602 z"
           style="fill:url(#linearGradient4061);fill-opacity:1;stroke:#000000;stroke-width:1.26666677;stroke-linecap:butt;stroke-linejoin:miter;stroke-miterlimit:4;stroke-dasharray:none;stroke-dashoffset:0;stroke-opacity:1"
           id="path4021" />
        <path
           d="M 385.39479,95.198518 C 342.81192,95.198518 308.24895,143.85042 308.24895,203.78186 C 308.24895,263.71329 342.81192,312.34437 385.39479,312.34436 C 419.27843,312.34436 448.0819,281.5587 458.43646,238.78186 L 521.54063,238.78186 L 543.12396,212.63602 L 557.35313,212.63602 L 566.93646,222.21936 L 589.91563,222.21936 L 593.72813,215.63602 L 615.87396,215.63602 L 626.0823,233.32352 L 644.81147,233.32352 L 656.9573,221.17769 L 673.0823,221.17769 L 687.10313,235.19852 L 704.7073,235.19852 L 739.81147,200.09435 L 739.81147,189.74019 L 731.93647,187.63602 L 710.91564,166.61519 L 457.89479,166.61519 C 447.10299,124.97251 418.70178,95.198518 385.39479,95.198518 z M 355.87395,165.24019 C 369.54253,165.24019 380.62395,182.50911 380.62395,203.78186 C 380.62395,225.0546 369.54253,242.32352 355.87395,242.32352 C 342.20538,242.32352 331.10312,225.0546 331.10312,203.78186 C 331.10312,182.5091 342.20538,165.24019 355.87395,165.24019 z"
           style="fill:none;fill-opacity:1;stroke:#000000;stroke-width:2.66666675;stroke-linecap:butt;stroke-linejoin:miter;stroke-miterlimit:4;stroke-dasharray:none;stroke-dashoffset:0;stroke-opacity:1"
           id="path4023" />
      </g>
      <g
         id="g4025"
         transform="matrix(9.0724377e-2,0,0,9.0724377e-2,-45.434957,242.20147)">
        <path
           transform="matrix(0.6666667,0,0,0.6666667,257.76978,476.3856)"
           id="path4027"
           style="opacity:0.561702;fill:#000000;fill-opacity:1;stroke:#000000;stroke-width:4;stroke-linecap:butt;stroke-linejoin:miter;stroke-miterlimit:4;stroke-dasharray:none;stroke-dashoffset:0;stroke-opacity:1;filter:url(#filter7120)"
           d="M 201.4375,83.563132 C 137.56321,83.563132 85.71875,156.54098 85.71875,246.43813 C 85.71875,336.33528 137.56321,409.28189 201.4375,409.28188 C 252.26296,409.28188 295.46817,363.10339 311,298.93813 L 405.65625,298.93813 L 438.03125,259.71938 L 459.375,259.71938 L 473.75,274.09438 L 508.21875,274.09438 L 513.9375,264.21938 L 547.15625,264.21938 L 562.46875,290.75063 L 590.5625,290.75063 L 608.78125,272.53188 L 632.96875,272.53188 L 654,293.56313 L 680.40625,293.56313 L 733.0625,240.90688 L 733.0625,225.37563 L 721.25,222.21938 L 689.71875,190.68813 L 310.1875,190.68813 C 293.9998,128.22412 251.39799,83.563132 201.4375,83.563132 z M 157.15625,188.62563 C 177.65911,188.62564 194.28125,214.52901 194.28125,246.43813 C 194.28125,278.34725 177.65911,304.25063 157.15625,304.25063 C 136.6534,304.25063 120,278.34725 120,246.43813 C 120,214.529 136.65339,188.62563 157.15625,188.62563 z" />
        <g
           transform="matrix(0.6666667,0,0,0.6666667,257.76978,476.3856)"
           id="g4029"
           style="fill:#ffc666;fill-opacity:1">
          <path
             d="M 191.4375,89.56313 C 127.56321,89.56313 75.71875,162.54098 75.71875,252.43813 C 75.71875,342.33528 127.56321,415.28189 191.4375,415.28188 C 242.26296,415.28188 285.46817,369.10339 301,304.93813 L 395.65625,304.93813 L 428.03125,265.71938 L 449.375,265.71938 L 463.75,280.09438 L 498.21875,280.09438 L 503.9375,270.21938 L 537.15625,270.21938 L 552.46875,296.75063 L 580.5625,296.75063 L 598.78125,278.53188 L 622.96875,278.53188 L 644,299.56313 L 670.40625,299.56313 L 723.0625,246.90688 L 723.0625,231.37563 L 711.25,228.21938 L 679.71875,196.68813 L 300.1875,196.68813 C 283.9998,134.22412 241.39799,89.563133 191.4375,89.56313 z M 147.15625,194.62563 C 167.65911,194.62564 184.28125,220.52901 184.28125,252.43813 C 184.28125,284.34725 167.65911,310.25063 147.15625,310.25063 C 126.6534,310.25063 110,284.34725 110,252.43813 C 110,220.529 126.65339,194.62563 147.15625,194.62563 z"
             style="fill:#ffc666;fill-opacity:1;stroke:#000000;stroke-width:4;stroke-linecap:butt;stroke-linejoin:miter;stroke-miterlimit:4;stroke-dasharray:none;stroke-dashoffset:0;stroke-opacity:1"
             id="path4031" />
        </g>
        <path
           id="path4033"
           style="fill:url(#linearGradient4063);fill-opacity:1;stroke:#000000;stroke-width:1.26666677;stroke-linecap:butt;stroke-linejoin:miter;stroke-miterlimit:4;stroke-dasharray:none;stroke-dashoffset:0;stroke-opacity:1"
           d="M 731.93647,628.53186 L 717.70314,614.29853 L 718.72597,614.94988 C 718.72597,614.94988 531.96245,616.81007 508.89603,616.81007 C 485.82962,616.81007 481.7372,628.53186 481.7372,628.53186 L 731.93647,628.53186 z" />
        <path
           id="path4035"
           style="fill:none;fill-opacity:1;stroke:#000000;stroke-width:2.66666675;stroke-linecap:butt;stroke-linejoin:miter;stroke-miterlimit:4;stroke-dasharray:none;stroke-dashoffset:0;stroke-opacity:1"
           d="M 385.39479,536.09436 C 342.81192,536.09436 308.24895,584.74626 308.24895,644.6777 C 308.24895,704.60913 342.81192,753.24021 385.39479,753.2402 C 419.27843,753.2402 448.0819,722.45454 458.43646,679.6777 L 521.54063,679.6777 L 543.12396,653.53186 L 557.35313,653.53186 L 566.93646,663.1152 L 589.91563,663.1152 L 593.72813,656.53186 L 615.87396,656.53186 L 626.0823,674.21936 L 644.81147,674.21936 L 656.9573,662.07353 L 673.0823,662.07353 L 687.10313,676.09436 L 704.7073,676.09436 L 739.81147,640.99019 L 739.81147,630.63603 L 731.93647,628.53186 L 710.91564,607.51103 L 457.89479,607.51103 C 447.10299,565.86835 418.70178,536.09436 385.39479,536.09436 z M 355.87395,606.13603 C 369.54253,606.13603 380.62395,623.40495 380.62395,644.6777 C 380.62395,665.95044 369.54253,683.21936 355.87395,683.21936 C 342.20538,683.21936 331.10312,665.95044 331.10312,644.6777 C 331.10312,623.40494 342.20538,606.13603 355.87395,606.13603 z" />
      </g>
      <g
         id="g4037"
         transform="matrix(9.0724377e-2,0,0,9.0724377e-2,-45.434957,242.20147)">
        <path
           transform="matrix(0.6666667,0,0,0.6666667,257.76978,35.48976)"
           id="path4039"
           style="opacity:0.561702;fill:#000000;fill-opacity:1;stroke:#000000;stroke-width:4;stroke-linecap:butt;stroke-linejoin:miter;stroke-miterlimit:4;stroke-dasharray:none;stroke-dashoffset:0;stroke-opacity:1;filter:url(#filter7120)"
           d="M 201.4375,83.563132 C 137.56321,83.563132 85.71875,156.54098 85.71875,246.43813 C 85.71875,336.33528 137.56321,409.28189 201.4375,409.28188 C 252.26296,409.28188 295.46817,363.10339 311,298.93813 L 405.65625,298.93813 L 438.03125,259.71938 L 459.375,259.71938 L 473.75,274.09438 L 508.21875,274.09438 L 513.9375,264.21938 L 547.15625,264.21938 L 562.46875,290.75063 L 590.5625,290.75063 L 608.78125,272.53188 L 632.96875,272.53188 L 654,293.56313 L 680.40625,293.56313 L 733.0625,240.90688 L 733.0625,225.37563 L 721.25,222.21938 L 689.71875,190.68813 L 310.1875,190.68813 C 293.9998,128.22412 251.39799,83.563132 201.4375,83.563132 z M 157.15625,188.62563 C 177.65911,188.62564 194.28125,214.52901 194.28125,246.43813 C 194.28125,278.34725 177.65911,304.25063 157.15625,304.25063 C 136.6534,304.25063 120,278.34725 120,246.43813 C 120,214.529 136.65339,188.62563 157.15625,188.62563 z" />
        <g
           transform="matrix(0.6666667,0,0,0.6666667,257.76978,35.489761)"
           id="g4041">
          <path
             d="M 191.4375,89.56313 C 127.56321,89.56313 75.71875,162.54098 75.71875,252.43813 C 75.71875,342.33528 127.56321,415.28189 191.4375,415.28188 C 242.26296,415.28188 285.46817,369.10339 301,304.93813 L 395.65625,304.93813 L 428.03125,265.71938 L 449.375,265.71938 L 463.75,280.09438 L 498.21875,280.09438 L 503.9375,270.21938 L 537.15625,270.21938 L 552.46875,296.75063 L 580.5625,296.75063 L 598.78125,278.53188 L 622.96875,278.53188 L 644,299.56313 L 670.40625,299.56313 L 723.0625,246.90688 L 723.0625,231.37563 L 711.25,228.21938 L 679.71875,196.68813 L 300.1875,196.68813 C 283.9998,134.22412 241.39799,89.563133 191.4375,89.56313 z M 147.15625,194.62563 C 167.65911,194.62564 184.28125,220.52901 184.28125,252.43813 C 184.28125,284.34725 167.65911,310.25063 147.15625,310.25063 C 126.6534,310.25063 110,284.34725 110,252.43813 C 110,220.529 126.65339,194.62563 147.15625,194.62563 z"
             style="fill:#ffffcc;fill-opacity:1;stroke:#000000;stroke-width:4;stroke-linecap:butt;stroke-linejoin:miter;stroke-miterlimit:4;stroke-dasharray:none;stroke-dashoffset:0;stroke-opacity:1"
             id="path4043" />
        </g>
        <path
           id="path4045"
           style="fill:url(#linearGradient4065);fill-opacity:1;stroke:#000000;stroke-width:1.26666677;stroke-linecap:butt;stroke-linejoin:miter;stroke-miterlimit:4;stroke-dasharray:none;stroke-dashoffset:0;stroke-opacity:1"
           d="M 731.93647,187.63602 L 717.70314,173.40269 L 718.72597,174.05404 C 718.72597,174.05404 531.96245,175.91423 508.89603,175.91423 C 485.82962,175.91423 481.7372,187.63602 481.7372,187.63602 L 731.93647,187.63602 z" />
        <path
           id="path4047"
           style="fill:none;fill-opacity:1;stroke:#000000;stroke-width:2.66666675;stroke-linecap:butt;stroke-linejoin:miter;stroke-miterlimit:4;stroke-dasharray:none;stroke-dashoffset:0;stroke-opacity:1"
           d="M 385.39479,95.198518 C 342.81192,95.198518 308.24895,143.85042 308.24895,203.78186 C 308.24895,263.71329 342.81192,312.34437 385.39479,312.34436 C 419.27843,312.34436 448.0819,281.5587 458.43646,238.78186 L 521.54063,238.78186 L 543.12396,212.63602 L 557.35313,212.63602 L 566.93646,222.21936 L 589.91563,222.21936 L 593.72813,215.63602 L 615.87396,215.63602 L 626.0823,233.32352 L 644.81147,233.32352 L 656.9573,221.17769 L 673.0823,221.17769 L 687.10313,235.19852 L 704.7073,235.19852 L 739.81147,200.09435 L 739.81147,189.74019 L 731.93647,187.63602 L 710.91564,166.61519 L 457.89479,166.61519 C 447.10299,124.97251 418.70178,95.198518 385.39479,95.198518 z M 355.87395,165.24019 C 369.54253,165.24019 380.62395,182.50911 380.62395,203.78186 C 380.62395,225.0546 369.54253,242.32352 355.87395,242.32352 C 342.20538,242.32352 331.10312,225.0546 331.10312,203.78186 C 331.10312,182.5091 342.20538,165.24019 355.87395,165.24019 z" />
      </g>
      <g
         id="g4049"
         transform="matrix(9.0724377e-2,0,0,9.0724377e-2,-45.434957,242.20147)">
        <path
           d="M 201.4375,83.563132 C 137.56321,83.563132 85.71875,156.54098 85.71875,246.43813 C 85.71875,336.33528 137.56321,409.28189 201.4375,409.28188 C 252.26296,409.28188 295.46817,363.10339 311,298.93813 L 405.65625,298.93813 L 438.03125,259.71938 L 459.375,259.71938 L 473.75,274.09438 L 508.21875,274.09438 L 513.9375,264.21938 L 547.15625,264.21938 L 562.46875,290.75063 L 590.5625,290.75063 L 608.78125,272.53188 L 632.96875,272.53188 L 654,293.56313 L 680.40625,293.56313 L 733.0625,240.90688 L 733.0625,225.37563 L 721.25,222.21938 L 689.71875,190.68813 L 310.1875,190.68813 C 293.9998,128.22412 251.39799,83.563132 201.4375,83.563132 z M 157.15625,188.62563 C 177.65911,188.62564 194.28125,214.52901 194.28125,246.43813 C 194.28125,278.34725 177.65911,304.25063 157.15625,304.25063 C 136.6534,304.25063 120,278.34725 120,246.43813 C 120,214.529 136.65339,188.62563 157.15625,188.62563 z"
           style="opacity:0.561702;fill:#000000;fill-opacity:1;stroke:#000000;stroke-width:4;stroke-linecap:butt;stroke-linejoin:miter;stroke-miterlimit:4;stroke-dasharray:none;stroke-dashoffset:0;stroke-opacity:1;filter:url(#filter7120)"
           id="path4051"
           transform="matrix(0.6666667,0,0,0.6666667,257.76978,476.3856)" />
        <g
           style="fill:#ffc666;fill-opacity:1"
           id="g4053"
           transform="matrix(0.6666667,0,0,0.6666667,257.76978,476.3856)">
          <path
             id="path4055"
             style="fill:#ffc666;fill-opacity:1;stroke:#000000;stroke-width:4;stroke-linecap:butt;stroke-linejoin:miter;stroke-miterlimit:4;stroke-dasharray:none;stroke-dashoffset:0;stroke-opacity:1"
             d="M 191.4375,89.56313 C 127.56321,89.56313 75.71875,162.54098 75.71875,252.43813 C 75.71875,342.33528 127.56321,415.28189 191.4375,415.28188 C 242.26296,415.28188 285.46817,369.10339 301,304.93813 L 395.65625,304.93813 L 428.03125,265.71938 L 449.375,265.71938 L 463.75,280.09438 L 498.21875,280.09438 L 503.9375,270.21938 L 537.15625,270.21938 L 552.46875,296.75063 L 580.5625,296.75063 L 598.78125,278.53188 L 622.96875,278.53188 L 644,299.56313 L 670.40625,299.56313 L 723.0625,246.90688 L 723.0625,231.37563 L 711.25,228.21938 L 679.71875,196.68813 L 300.1875,196.68813 C 283.9998,134.22412 241.39799,89.563133 191.4375,89.56313 z M 147.15625,194.62563 C 167.65911,194.62564 184.28125,220.52901 184.28125,252.43813 C 184.28125,284.34725 167.65911,310.25063 147.15625,310.25063 C 126.6534,310.25063 110,284.34725 110,252.43813 C 110,220.529 126.65339,194.62563 147.15625,194.62563 z" />
        </g>
        <path
           d="M 731.93647,628.53186 L 717.70314,614.29853 L 718.72597,614.94988 C 718.72597,614.94988 531.96245,616.81007 508.89603,616.81007 C 485.82962,616.81007 481.7372,628.53186 481.7372,628.53186 L 731.93647,628.53186 z"
           style="fill:url(#linearGradient4067);fill-opacity:1;stroke:#000000;stroke-width:1.26666677;stroke-linecap:butt;stroke-linejoin:miter;stroke-miterlimit:4;stroke-dasharray:none;stroke-dashoffset:0;stroke-opacity:1"
           id="path4057" />
        <path
           d="M 385.39479,536.09436 C 342.81192,536.09436 308.24895,584.74626 308.24895,644.6777 C 308.24895,704.60913 342.81192,753.24021 385.39479,753.2402 C 419.27843,753.2402 448.0819,722.45454 458.43646,679.6777 L 521.54063,679.6777 L 543.12396,653.53186 L 557.35313,653.53186 L 566.93646,663.1152 L 589.91563,663.1152 L 593.72813,656.53186 L 615.87396,656.53186 L 626.0823,674.21936 L 644.81147,674.21936 L 656.9573,662.07353 L 673.0823,662.07353 L 687.10313,676.09436 L 704.7073,676.09436 L 739.81147,640.99019 L 739.81147,630.63603 L 731.93647,628.53186 L 710.91564,607.51103 L 457.89479,607.51103 C 447.10299,565.86835 418.70178,536.09436 385.39479,536.09436 z M 355.87395,606.13603 C 369.54253,606.13603 380.62395,623.40495 380.62395,644.6777 C 380.62395,665.95044 369.54253,683.21936 355.87395,683.21936 C 342.20538,683.21936 331.10312,665.95044 331.10312,644.6777 C 331.10312,623.40494 342.20538,606.13603 355.87395,606.13603 z"
           style="fill:none;fill-opacity:1;stroke:#000000;stroke-width:2.66666675;stroke-linecap:butt;stroke-linejoin:miter;stroke-miterlimit:4;stroke-dasharray:none;stroke-dashoffset:0;stroke-opacity:1"
           id="path4059" />
      </g>
    </g>
    <path
       sodipodi:nodetypes="cccccccc"
       id="path3255"
       d="M 296,278.36218 L 402,278.36218 L 402,274.36218 L 414,282.36218 L 402,290.36218 L 402,286.36218 L 296,286.36218 L 296,278.36218 z"
       style="fill:#ffffff;fill-rule:evenodd;stroke:#000000;stroke-width:1px;stroke-linecap:butt;stroke-linejoin:miter;stroke-opacity:1" />
    <text
       xml:space="preserve"
       style="font-size:13px;font-style:normal;font-weight:normal;fill:#000000;fill-opacity:1;stroke:none;stroke-width:1px;stroke-linecap:butt;stroke-linejoin:miter;stroke-opacity:1;font-family:Bitstream Vera Sans"
       x="439.99585"
       y="370.26199"
       id="text3279"><tspan
         sodipodi:role="line"
         id="tspan3281"
         x="439.99585"
         y="370.26199">Encryption</tspan></text>
    <path
       style="fill:#ffffff;fill-rule:evenodd;stroke:#000000;stroke-width:1px;stroke-linecap:butt;stroke-linejoin:miter;stroke-opacity:1"
       d="M 479,288.36218 L 479,340.36218 L 483,340.36218 L 475,352.36218 L 467,340.36218 L 471,340.36218 L 471,288.36218 L 479,288.36218 z"
       id="path3275"
       sodipodi:nodetypes="cccccccc" />
    <path
       sodipodi:nodetypes="cccccccccccc"
       id="path4069"
       d="M 554,362.36218 L 526,362.36218 L 526,358.36218 L 514,366.36218 L 526,374.36218 L 526,370.36218 L 562,370.36218 L 562,304.36218 L 578,304.36218 L 578,296.36218 L 554,296.36218 L 554,362.36218 z"
       style="fill:#ffffff;fill-rule:evenodd;stroke:#000000;stroke-width:1px;stroke-linecap:butt;stroke-linejoin:miter;stroke-opacity:1" />
    <path
       sodipodi:nodetypes="cccccccc"
       id="path4083"
       d="M 479,382.36218 L 479,434.36218 L 483,434.36218 L 475,446.36218 L 467,434.36218 L 471,434.36218 L 471,382.36218 L 479,382.36218 z"
       style="fill:#ffffff;fill-rule:evenodd;stroke:#000000;stroke-width:1px;stroke-linecap:butt;stroke-linejoin:miter;stroke-opacity:1" />
    <path
       style="fill:#ffffff;fill-rule:evenodd;stroke:#000000;stroke-width:1px;stroke-linecap:butt;stroke-linejoin:miter;stroke-opacity:1"
       d="M 414,448.36218 L 308,448.36218 L 308,444.36218 L 296,452.36218 L 308,460.36218 L 308,456.36218 L 414,456.36218 L 414,448.36218 z"
       id="path4085"
       sodipodi:nodetypes="cccccccc" />
    <rect
       style="fill:#f4e3d7;fill-opacity:0.56281403;stroke:none;stroke-width:1;stroke-miterlimit:4;stroke-dasharray:none;stroke-opacity:1"
       id="rect4087"
       width="750"
       height="440"
       x="-30"
       y="-407.63782"
       ry="4.6428571" />
  </g>
</svg>
