<?xml version="1.0" encoding="UTF-8" standalone="no"?>
<!-- Created with Inkscape (http://www.inkscape.org/) -->
<svg xmlns:svg="http://www.w3.org/2000/svg" xmlns="http://www.w3.org/2000/svg" xmlns:xlink="http://www.w3.org/1999/xlink" xmlns:inkscape="http://www.inkscape.org/namespaces/inkscape" version="1.0" width="661.34375" height="338.72" id="svg2">
  <defs id="defs4">
    <linearGradient id="linearGradient5158">
      <stop style="stop-color: rgb(230, 230, 153); stop-opacity: 1;" offset="0" id="stop5160"/>
      <stop style="stop-color: rgb(174, 174, 42); stop-opacity: 1;" offset="1" id="stop5162"/>
    </linearGradient>
    <linearGradient x1="335.0011" y1="216.04376" x2="335.0011" y2="236.74471" id="linearGradient5164" xlink:href="#linearGradient5158" gradientUnits="userSpaceOnUse"/>
    <filter id="filter7120">
      <feGaussianBlur id="feGaussianBlur7122" stdDeviation="3.92425" inkscape:collect="always"/>
    </filter>
    <linearGradient x1="335.0011" y1="216.04376" x2="335.0011" y2="236.74471" id="linearGradient7130" xlink:href="#linearGradient5158" gradientUnits="userSpaceOnUse"/>
  </defs>
  <g transform="translate(-73.7188, -80.0625)" id="layer1">
    <g transform="translate(0, 1.50063)" id="g7124">
      <path d="M 201.4375,82.0625 C 137.56321,82.0625 85.71875,155.04035 85.71875,244.9375 C 85.71875,334.83465 137.56321,407.78126 201.4375,407.78125 C 252.26296,407.78125 295.46817,361.60276 311,297.4375 L 405.65625,297.4375 L 438.03125,258.21875 L 459.375,258.21875 L 473.75,272.59375 L 508.21875,272.59375 L 513.9375,262.71875 L 547.15625,262.71875 L 562.46875,289.25 L 590.5625,289.25 L 608.78125,271.03125 L 632.96875,271.03125 L 654,292.0625 L 680.40625,292.0625 L 733.0625,239.40625 L 733.0625,223.875 L 721.25,220.71875 L 689.71875,189.1875 L 310.1875,189.1875 C 293.9998,126.72349 251.39799,82.062503 201.4375,82.0625 z M 157.15625,187.125 C 177.65911,187.12501 194.28125,213.02838 194.28125,244.9375 C 194.28125,276.84662 177.65911,302.75 157.15625,302.75 C 136.6534,302.75 120,276.84662 120,244.9375 C 120,213.02837 136.65339,187.125 157.15625,187.125 z " style="opacity: 0.561702; fill: rgb(0, 0, 0); fill-opacity: 1; stroke: rgb(0, 0, 0); stroke-width: 4; stroke-linecap: butt; stroke-linejoin: miter; stroke-miterlimit: 4; stroke-dasharray: none; stroke-dashoffset: 0pt; stroke-opacity: 1; filter: url(#filter7120);" id="path6137"/>
      <path d="M 191.4375,88.0625 C 127.56321,88.0625 75.71875,161.04035 75.71875,250.9375 C 75.71875,340.83465 127.56321,413.78126 191.4375,413.78125 C 242.26296,413.78125 285.46817,367.60276 301,303.4375 L 395.65625,303.4375 L 428.03125,264.21875 L 449.375,264.21875 L 463.75,278.59375 L 498.21875,278.59375 L 503.9375,268.71875 L 537.15625,268.71875 L 552.46875,295.25 L 580.5625,295.25 L 598.78125,277.03125 L 622.96875,277.03125 L 644,298.0625 L 670.40625,298.0625 L 723.0625,245.40625 L 723.0625,229.875 L 711.25,226.71875 L 679.71875,195.1875 L 300.1875,195.1875 C 283.9998,132.72349 241.39799,88.062503 191.4375,88.0625 z M 147.15625,193.125 C 167.65911,193.12501 184.28125,219.02838 184.28125,250.9375 C 184.28125,282.84662 167.65911,308.75 147.15625,308.75 C 126.6534,308.75 110,282.84662 110,250.9375 C 110,219.02837 126.65339,193.125 147.15625,193.125 z " style="opacity: 1; fill: rgb(255, 255, 204); fill-opacity: 1; stroke: rgb(0, 0, 0); stroke-width: 4; stroke-linecap: butt; stroke-linejoin: miter; stroke-miterlimit: 4; stroke-dasharray: none; stroke-dashoffset: 0pt; stroke-opacity: 1;" id="path2221"/>
      <path d="M 711.25,226.71875 L 689.90001,205.36876 L 691.43425,206.34578 C 691.43425,206.34578 411.28898,209.13607 376.68936,209.13607 C 342.08975,209.13607 335.95111,226.71875 335.95111,226.71875 L 711.25,226.71875 z " style="opacity: 1; fill: url(#linearGradient7130) rgb(0, 0, 0); fill-opacity: 1; stroke: rgb(0, 0, 0); stroke-width: 1.9; stroke-linecap: butt; stroke-linejoin: miter; stroke-miterlimit: 4; stroke-dasharray: none; stroke-dashoffset: 0pt; stroke-opacity: 1;" id="path4186"/>
      <path d="M 191.4375,88.0625 C 127.56321,88.0625 75.71875,161.04035 75.71875,250.9375 C 75.71875,340.83465 127.56321,413.78126 191.4375,413.78125 C 242.26296,413.78125 285.46817,367.60276 301,303.4375 L 395.65625,303.4375 L 428.03125,264.21875 L 449.375,264.21875 L 463.75,278.59375 L 498.21875,278.59375 L 503.9375,268.71875 L 537.15625,268.71875 L 552.46875,295.25 L 580.5625,295.25 L 598.78125,277.03125 L 622.96875,277.03125 L 644,298.0625 L 670.40625,298.0625 L 723.0625,245.40625 L 723.0625,229.875 L 711.25,226.71875 L 679.71875,195.1875 L 300.1875,195.1875 C 283.9998,132.72349 241.39799,88.062503 191.4375,88.0625 z M 147.15625,193.125 C 167.65911,193.12501 184.28125,219.02838 184.28125,250.9375 C 184.28125,282.84662 167.65911,308.75 147.15625,308.75 C 126.6534,308.75 110,282.84662 110,250.9375 C 110,219.02837 126.65339,193.125 147.15625,193.125 z " style="opacity: 1; fill: none; fill-opacity: 1; stroke: rgb(0, 0, 0); stroke-width: 4; stroke-linecap: butt; stroke-linejoin: miter; stroke-miterlimit: 4; stroke-dasharray: none; stroke-dashoffset: 0pt; stroke-opacity: 1;" id="path5166"/>
    </g>
  </g>
</svg>